<svg id="Capa_1" data-name="Capa 1" xmlns="http://www.w3.org/2000/svg" viewBox="0 0 323.28 323.28"><defs><style>.cls-1{fill:#0b7064;}.cls-2{fill:#fff;}.cls-3{fill:#921a14;}.cls-4{fill:#02433d;}.cls-5,.cls-6{fill:none;stroke-miterlimit:10;}.cls-5{stroke:#1d1d1b;stroke-width:3px;}.cls-6{stroke:#921a14;stroke-width:20px;}</style></defs><path class="cls-1" d="M453.13,534.08c49.7,26.12,26.93,98.69,5.75,155.78-18.37,64.7-132,63.74-126.7-42.66-22.42,5.54-33.44-39-11-44.58-8.87-98.82,71.46-94.53,120.63-73.87C445.8,530.43,449.6,532.23,453.13,534.08ZM440.52,651.35c21-.52,17.91-39.23-3.67-38.19S419.51,651.87,440.52,651.35ZM416.9,702.94c49.65-29.22-67.46-33.66-30.55,0,14.49-4.48,12.82,10,15.33,10.86S407.49,702.68,416.9,702.94Zm0-36.89c.38-4.06-3.61-9.13-9.39-15.74-5.78,6.61-9.77,11.68-9.39,15.74s8.65,4.84,9-.88C407.55,670.89,416.5,670.12,416.88,666.05Zm-24.1-30.72c10-20.55-27.2-34.75-37.4-15S382.77,655.89,392.78,635.33Z" transform="translate(-234.27 -450.62)"/><path class="cls-2" d="M436.85,613.16c21.58-1,24.67,37.67,3.67,38.19S415.28,614.2,436.85,613.16Z" transform="translate(-234.27 -450.62)"/><path class="cls-3" d="M386.35,703c-36.91-33.68,80.2-29.24,30.55,0-9.41-.26-12.7,11.72-15.22,10.88S400.84,698.48,386.35,703Z" transform="translate(-234.27 -450.62)"/><path class="cls-4" d="M407.49,650.31c5.78,6.61,9.77,11.68,9.39,15.74s-9.33,4.84-9.73-.88c-.4,5.72-8.67,5-9,.88S401.71,656.92,407.49,650.31Z" transform="translate(-234.27 -450.62)"/><path class="cls-2" d="M355.38,620.36c10.2-19.78,47.41-5.58,37.4,15S345.18,640.13,355.38,620.36Z" transform="translate(-234.27 -450.62)"/><path class="cls-5" d="M332.18,647.2c-5.27,106.4,108.33,107.36,126.7,42.66,21.18-57.09,43.95-129.66-5.75-155.78-3.53-1.85-7.33-3.65-11.34-5.33-49.17-20.66-129.5-24.95-120.63,73.87C298.74,608.17,309.76,652.74,332.18,647.2Z" transform="translate(-234.27 -450.62)"/><path class="cls-5" d="M355.38,620.36c10.2-19.78,47.41-5.58,37.4,15S345.18,640.13,355.38,620.36Z" transform="translate(-234.27 -450.62)"/><line class="cls-5" x1="207.51" y1="78.12" x2="218.85" y2="54.85"/><line class="cls-5" x1="168.45" y1="67.28" x2="166.44" y2="40.15"/><line class="cls-5" x1="128.91" y1="69.15" x2="118.48" y2="43.99"/><path class="cls-5" d="M440.52,651.35c-21,.52-25.24-37.15-3.67-38.19S461.52,650.83,440.52,651.35Z" transform="translate(-234.27 -450.62)"/><path class="cls-5" d="M386.35,703c14.49-4.48,12.82,10,15.33,10.86s5.81-11.14,15.22-10.88C466.55,673.72,349.44,669.28,386.35,703Z" transform="translate(-234.27 -450.62)"/><path class="cls-5" d="M407.15,665.17c.4,5.72,9.35,5,9.73.88s-3.61-9.13-9.39-15.74c-5.78,6.61-9.77,11.68-9.39,15.74S406.75,670.89,407.15,665.17Z" transform="translate(-234.27 -450.62)"/><circle class="cls-6" cx="161.64" cy="161.64" r="151.64"/><line class="cls-6" x1="70.25" y1="282.65" x2="280.69" y2="67.72"/></svg>